<svg xmlns="http://www.w3.org/2000/svg" version="1.1" xmlns:xlink="http://www.w3.org/1999/xlink" xmlns:svgjs="http://svgjs.dev/svgjs" viewBox="0 0 1422 800" opacity="0.5"><defs><linearGradient x1="50%" y1="0%" x2="50%" y2="100%" id="ssscribble-grad"><stop stop-color="#2dd4bf" stop-opacity="1" offset="0%"></stop><stop stop-color="#9333ea" stop-opacity="1" offset="100%"></stop></linearGradient></defs><g fill="none" stroke-width="1.5" stroke="url(#ssscribble-grad)" stroke-linecap="round"><path d="M1183.29 432.32C1238.26 465.18 1275.94 491.52 1287.71 511.36 1274.11 531.05 1235.22 544.22 1180.25 551.64 1119.31 560.33 1061.26 565.98 1013.3 571.79 979.62 584.75 959.84 604.1 950.88 633.58 952.77 675.36 957.54 728.24 960.63 788.9 964.88 850.51 962.63 905.59 953.01 943.98 941.38 960.53 922.81 950.16 898.48 914.46 873.25 866.98 843.81 816.21 810.95 777.13 778.09 765.17 743.36 779.52 706.62 813.52 668.97 860.43 627.77 902.49 582.45 928.57 535.13 936.01 483.26 918.77 428.36 881.09 374.62 829.19 322.68 769.53 277.72 709.73 243.61 653.14 224.43 604.1 223.89 563.42 237.63 530.51 266.21 503.6 303.07 479.86 333.95 460.08 354.13 439.47 355.05 415.93 330.6 393.21 286.26 365.78 231.29 332.92 177.28 300.06 142.15 263.33 133.75 224.07 150.84 185.65 192.45 146.47 248.9 109.3 309.92 76.1 366.73 48.89 412.57 31.15 456.3 42.88 451.15 89.03 462.75 51.4 475.24 1.23 494.61 -59.52 519.53 -119.11 545.4 -165.79 575.18 -186.81 608.04 -174.86 640.9 -135.78 675.28 -78.36 711.39 -18.19 748.44 30.18 788.85 59.27 833.32 66.81 880 52.5 931.42 26.89 986.29 -0.49 1040.51 -26.94 1093.6 -40.85 1140.42 -39.57 1176.84 -25.98 1198.72 1.83 1201.98 39.53 1190.37 84.36 1163.02 132.82 1126.09 181.09 1093.73 230.61 1070.82 277.22 1066.41 319.5 1087.49 361.63 1129.28 399.46 1183.29 432.32Q1183.29 432.32 1183.29 432.32" opacity="0.22"></path><path d="M1149.29 372.22C1200.62 402.74 1237.46 427.21 1252.52 446.08 1246.02 465.34 1216.38 479.96 1170.18 491.4 1115.24 505.46 1058.58 519.58 1007.16 536.67 965.12 560.97 934.22 592.46 913.58 632.85 903.59 681.45 899.13 736.79 896.38 794.43 896.38 869.92 874.34 915.34 848.29 869.82 828.5 824.94 803.24 778.72 772.73 743.13 742.21 731.01 707.89 741.51 670.14 769.76 631.98 811.39 589.8 851.82 544.16 881.44 498.37 897.76 450.21 893.38 402.14 869.9 357.85 831.72 318.51 782.41 288.5 728.41 269.15 672.77 263.87 620.28 274.13 573.34 293.78 531.22 323.07 494.86 355.65 462.96 379.48 434.59 391.75 407.83 386.48 380.96 359.65 355.06 316.62 327.16 265.29 296.65 214.8 266.13 180.17 234.45 168.15 202.8 177.95 172.13 210.39 143.39 258.45 118.87 314.13 97.89 370.34 83.99 420.38 79.09 460.29 79 488.8 87.68 507.14 103.33 516.34 123.9 518.41 117.1 526.37 66.92 533.83 14.94 547.48 -42.84 567.15 -96.25 587.28 -136.28 612.75 -152.97 643.26 -140.86 673.77 -105.28 707.89 -52.87 745.3 3.78 783.18 52.65 825.04 86.87 870.46 103.11 916.26 99.58 964.74 83.32 1013.58 61.42 1059.02 35.54 1100.04 16.38 1132.22 7.77 1153.88 7.38 1161.55 19.7 1153.41 42.43 1135.14 72.37 1106.3 108.5 1072.99 147.32 1047.29 188.75 1032.21 229.64 1034.19 267.93 1057.99 306.6 1098.8 341.71 1149.29 372.22Q1149.29 372.22 1149.29 372.22" opacity="0.88"></path><path d="M1115.29 320.27C1162.91 348.44 1198.53 372.47 1216.09 392.91 1215.76 414.04 1194.88 433 1157.88 451.32 1110.69 472.62 1058.4 496.17 1007.17 524 960.74 557.62 921.97 597.62 891.62 643.94 870.18 694.18 855.16 746.87 843.94 797.36 834.44 856.39 808.57 872.77 785.34 824.74 768.2 782.99 745.65 741.31 717.48 709.13 689.31 697 656.87 704.04 620.89 726.78 584.97 762.7 545.78 800.08 504.65 830.94 464.75 853.39 424.87 859.51 387.7 849.07 355.51 825.19 330.09 788.78 314.62 744.73 308.06 695.72 313.43 645.84 330.53 598.26 352.43 552.33 379.46 510.65 406.01 473.32 422.36 438.36 427.21 406.37 416.67 376.45 388.24 347.35 346.91 318.84 299.29 290.67 252.38 262.51 218.68 236.01 203.81 212 207.18 188.79 230.84 169.55 269.94 155.7 318.4 144.21 370.95 139.51 421.55 142.02 466.59 146.2 503.51 155.64 531.87 167.73 551.19 174.87 564.33 177.88 574.04 172.43 578.98 153.55 584.58 122.17 592.93 79.08 600.23 27.57 612.11 -25.82 629.26 -72.61 646.4 -106.23 668.98 -118.98 697.15 -106.86 725.31 -74.68 757.74 -27.29 793.71 25.32 829.69 73.41 869.04 111.06 910.56 134.41 951.02 140.88 991.8 134.72 1030.27 120.73 1096.64 73.84 1063.28 94.76 1021.82 133.69 1003.36 164.18 995.73 196.47 1003.23 228.46 1028.98 261.13 1068.38 292.1 1115.29 320.27Q1115.29 320.27 1115.29 320.27" opacity="0.94"></path><path d="M1081.29 291.69C1125.14 317.51 1159.17 341.79 1178.46 364.9 1183.3 388.73 1170.4 412.75 1142.57 438.09 1104.22 465.94 1058.62 497.1 1010.88 532.48 964.12 571.45 921.47 614.92 884.7 661.65 854.23 708.58 829.67 754.37 809.65 794.78 787.77 836.29 748.83 827.89 724.47 779.35 707.48 741.16 686.27 704 660.45 675.13 634.63 663.16 605.42 667.13 573.73 684.68 542.4 714.68 509.4 747.87 476.3 777.94 445.15 803.71 416.08 817.49 391.44 817.9 371.66 807.32 359.15 784.5 355.78 752.69 358.71 714.36 370.75 672.14 390.63 629.24 411.48 585.39 433.93 543.6 453.35 505.05 462.25 467.43 460.46 432.99 445.65 401.74 416.4 370.96 377.14 342.58 333.29 316.76 290.04 290.94 257.65 268.91 240.7 250.99 238.6 233.55 254.16 221.02 284.2 213.89 324.19 207.7 370.63 206.97 418.44 211.02 464.57 214.14 506.04 219.28 541.34 223.78 570.05 221.74 592.88 213.95 611.35 197.65 625 170.35 637.23 133.42 649.92 88.73 660.76 39.74 674.19 -8.14 691.23 -48.1 707.94 -75.62 729.01 -84.83 754.83 -72.87 780.65 -44 809.99 -1.61 841.98 46.54 873.63 92.72 907.17 132.06 941.07 160.69 973.13 175.75 1003.42 179.41 1029.56 174.53 1033.41 129.69 961.87 177.81 973.5 214.15 1000.42 239.73 1038.04 265.87 1081.29 291.69Q1081.29 291.69 1081.29 291.69" opacity="0.20"></path><path d="M1047.1 294.76C1087.14 318.23 1119.25 342.59 1139.56 367.9 1148.57 393.74 1142.73 421.5 1123.64 451.61 1094.6 483.28 1057.29 518.26 1015.68 556.42 972.26 595.88 929.83 637.59 890.6 679.66 854.86 719.32 823.59 755.31 796.53 784.19 773.27 804.42 752.68 813.19 733.54 808.65 716.38 793.93 698.83 767.9 679.91 733.69 661.49 699.39 640.72 666.68 617.25 641.02 593.78 629.36 568.72 630.7 542.87 643.48 517.52 667.54 492.37 695.76 468.86 723.31 422.15 765.39 425.53 705.98 451.81 656.01 468.99 619.17 485.25 582.2 497.08 546.78 498.96 511.09 491.45 477.81 473.38 447.66 444.01 417.62 407.14 390.62 367.1 367.14 327.58 343.67 296.91 324.85 278.69 310.62 272.22 296.5 280.65 287.08 302.06 282.1 333.05 276.84 371.69 275.16 413.98 275.82 457.47 273.92 499.41 271.6 537.75 266.61 572.24 255.06 602.12 237.55 627.81 212.71 649.62 179.86 668.93 140.42 687.03 96.75 703.18 51.99 719.97 10.41 738.4 -22.7 756.34 -44.53 776.87 -50.63 800.35 -38.97 823.82 -13.31 849.12 24.15 875.44 67.51 901.28 110.78 927.19 150.16 951.72 182.09 977.13 186.64 926.88 204.96 944.88 230.86 972.15 249.82 1007.58 271.29 1047.1 294.76Q1047.1 294.76 1047.1 294.76" opacity="0.79"></path><path d="M1013.31 328.89C1049.47 350.01 1079.27 373.62 1099.78 399.45 1111.74 425.54 1111.64 454.29 1100.3 485.51 1080.24 517.26 1051.88 551.5 1018.1 587.41 980.9 622.81 942.35 658.36 904.66 692.06 868.02 722 834.04 746.91 803.24 764.28 774.76 774.08 748.99 774 725.46 763.29 703.45 745.53 682.45 719.63 661.87 688.25 641.74 658.06 621.19 629.69 600.07 607.14 578.94 595.95 558.25 595.09 538.53 603.59 519.27 621.93 501.84 644.72 487.24 668.46 477.03 711.11 527.11 628.38 536.4 585.11 532.25 555.18 520.33 526.34 500.22 499.66 471.55 472.8 437.47 448.48 401.31 427.36 365.55 406.23 336.86 389.3 318 376.32 308.1 363.17 310.38 353.58 323.8 346.9 345.77 339.2 375.64 333.13 410.46 327.42 448.29 318.62 487 307.92 524.49 293.77 560.58 274.16 593.81 249.38 623.76 219.16 651.24 183.93 676.05 144.93 698.75 104.55 719.9 65.33 740.21 30.51 760.32 4.02 779.98 -12.61 800.29 -16.04 821.42 -4.85 842.54 17.69 863.48 50.34 883.66 88.69 903.39 128.21 921.5 166.14 936.97 199.38 925.35 245.82 894.64 257.52 917.56 276.1 944.57 290.12 977.54 307.76 1013.29 328.88Q1013.31 328.89 1013.31 328.89" opacity="0.41"></path><path d="M979.3 383.77C1011.54 402.55 1038.79 424.26 1058.87 448.42 1072.76 472.61 1077.19 499.25 1072.47 527.71 1060.62 555.9 1041.16 585.36 1016.05 614.98 986.89 643.03 954.92 669.64 922.05 693.1 888.5 712.6 855.85 726.75 825.07 733.95 795.17 735.26 767.41 728.68 741.92 714.11 717.29 695.2 694.38 670.72 673.07 642.83 652.06 616.86 632.12 592.69 613.34 573.13 586.2 561.28 543.71 586.42 530.16 614.11 554.43 655.22 554.62 573.65 525.92 540.82 498.59 518.87 467.54 498.19 435.3 479.41 403.37 460.63 377.02 444.64 358.27 431.18 344.81 411.52 374.32 377.42 411.24 358.88 441.41 343.46 474.03 325.57 507.22 304.45 540.84 279.54 573.3 250.82 603.74 218.7 633.14 184.18 660.36 148.19 685.32 112.86 709.37 80.03 731.78 52.08 752.74 31.82 773.39 19.79 793.14 18.58 811.92 29.13 830.7 48.68 847.61 76.66 862.38 109.88 876.84 145.01 888.58 180.18 897.08 212.85 906.51 252.9 903.66 299.26 891.9 308.43 865.77 310.31 865.16 323.79 891.21 338.78 917.2 350.02 947.36 364.98 979.28 383.76Q979.3 383.77 979.3 383.77" opacity="0.13"></path><path d="M945.28 443.38C1000.26 476.24 1033.84 518.25 1039.92 564.42 1024.66 607.88 986.49 649.32 936.86 679.17 880.76 695.77 825.07 690.98 775.99 662.04 727.9 624.25 686.42 578.2 653.55 539.12 620.69 527.17 599.56 537.45 590.71 561.39 585.04 611.25 608.5 634.66 601.33 603.3 571.16 574.39 524.26 541.05 469.28 508.18 415.27 475.32 384.15 446.05 381.14 418.02 399.65 385.83 440.37 347.75 491.56 300.76 548.5 245.52 604.27 182.83 653.08 122.8 700.66 74.77 741.76 51.17 774.62 63.12 807.48 102.2 829 161.57 838.36 223.45 846.5 276.47 842.01 316.12 828.15 342.58 820.02 355.8 814.16 365.65 819.73 379.14 846.83 389.92 891.27 410.52 945.28 443.38Q945.28 443.38 945.28 443.38" opacity="0.21"></path><path d="M911.31 490.28C958.92 518.44 990.91 550.83 1002.72 583.19 999.62 612.68 977.53 636.67 943.62 648.78 902.4 651.7 857.94 638.07 816.54 608.06 774.47 574.98 737.75 537.32 709.58 505.14 672.94 494.86 650.57 549.4 655.12 575.31 652.11 586.74 644.33 585.14 626.78 572.12 594.32 556.55 550.92 533.4 503.31 505.24 456.4 477.07 426.27 446.55 416.88 413.31 422.74 377.51 447.29 335.16 483.02 286.81 525.67 235.73 570.93 182.36 612.66 135.38 654.87 100.12 691.6 85.01 719.77 97.14 747.93 129.32 764.88 178.39 771.47 232.12 778.56 282.78 777.26 326.28 771.53 360.28 772.71 385.08 778.04 405.05 792.82 424.38 822.84 440.83 864.39 462.1 911.29 490.27Q911.31 490.28 911.31 490.28" opacity="0.61"></path><path d="M877.31 510.7C917.33 534.17 946.28 556.82 961.08 576.03 966.52 593.12 957.52 603.14 938.05 602.87 912.44 597.53 881.75 580.48 850.96 553.15 818.84 526.19 789.48 496.8 766.01 471.14 734.86 458.83 705.76 489.18 697.64 508.66 686.34 520.74 670.44 524.02 647.8 517.76 615.8 510.52 577.33 494.89 537.31 471.42 497.78 447.94 470.14 418.86 457.14 385.42 453.87 351 464.96 311.09 486.16 268.25 513.38 226.11 545.22 184.99 576.69 151.44 609.38 127.69 639.03 119.48 662.5 131.14 685.97 156.79 701.05 195.7 709.03 239.86 718.24 284.4 723.04 326.35 726.58 362.45 736.14 393.49 749.94 420.1 770.41 443.68 800.62 465.15 837.76 487.22 877.29 510.69Q877.31 510.7 877.31 510.7" opacity="0.07"></path><path d="M843.29 498.65C901.7 532.96 836.55 467.47 807.28 437.13 781.11 424.27 743.55 433.72 725.25 443.74 708.77 451.75 688.74 454.5 664.83 450.51 635.83 446.54 603.54 435.42 571.29 416.64 539.37 397.86 515.55 373.21 501.53 344.63 492.91 316.08 494.37 284.03 503.89 251.4 517.5 220.83 536.18 192.8 556.73 171.66 578.45 157.58 599.83 154.57 618.61 165.13 637.39 184.69 651.78 213.87 662.6 247.77 674.6 283.51 685.23 319.4 696.23 352.34 711.32 383.38 729.77 411.29 752.15 435.53 779.94 458.68 811.37 479.87 843.29 498.65Q843.29 498.65 843.29 498.65" opacity="0.26"></path><path d="M809.31 457.68C869.27 489.43 861.92 450.13 821.99 403.14 793.82 391.01 766.36 388.06 737.47 386.59 700.45 392.65 652.92 385.16 605.31 356.99 558.39 328.82 535.44 285.32 537.09 242.34 547.15 206.89 572 187.01 600.17 199.14 628.33 231.32 654.49 283.77 681.35 335.04 716.61 385.67 762.39 429.51 809.31 457.68Q809.31 457.68 809.31 457.68" opacity="0.17"></path><path d="M775.29 399.78C837.35 437.34 843.66 415.45 806.11 369.13 768.55 357.97 701.35 347.5 639.29 309.94 578.49 272.39 574.72 221.97 612.28 233.13 649.83 279.45 714.49 362.23 775.29 399.78Q775.29 399.78 775.29 399.78" opacity="0.37"></path></g></svg>